<svg width="20" height="20" viewBox="0 0 20 20" fill="none" xmlns="http://www.w3.org/2000/svg">
<path fill-rule="evenodd" clip-rule="evenodd" d="M18.3307 9.99996C18.3307 14.6023 14.5998 18.3333 9.9974 18.3333C5.39502 18.3333 1.66406 14.6023 1.66406 9.99996C1.66406 5.39759 5.39502 1.66663 9.9974 1.66663C14.5998 1.66663 18.3307 5.39759 18.3307 9.99996ZM4.54786 9.23607C4.85849 6.49986 7.1841 4.37496 10.0054 4.37496C11.7874 4.37496 13.3715 5.22323 14.3741 6.53534C14.5837 6.80961 14.5312 7.20185 14.257 7.41143C13.9827 7.62101 13.5905 7.56857 13.3809 7.2943C12.6048 6.27866 11.3818 5.62496 10.0054 5.62496C7.87417 5.62496 6.11106 7.19345 5.80848 9.23607H6.11116C6.36403 9.23607 6.59198 9.38844 6.68867 9.62209C6.78536 9.85574 6.73173 10.1246 6.5528 10.3033L5.57925 11.2755C5.33524 11.5192 4.93998 11.5192 4.69597 11.2755L3.72242 10.3033C3.5435 10.1246 3.48987 9.85574 3.58656 9.62209C3.68324 9.38844 3.9112 9.23607 4.16406 9.23607H4.54786ZM15.2988 8.72438C15.0548 8.48071 14.6596 8.48071 14.4156 8.72438L13.442 9.6966C13.2631 9.87529 13.2094 10.1442 13.3061 10.3778C13.4028 10.6115 13.6308 10.7638 13.8836 10.7638H14.1863C13.8837 12.8065 12.1206 14.375 9.98944 14.375C8.61943 14.375 7.40143 13.7273 6.62481 12.7198C6.41408 12.4464 6.02163 12.3956 5.74824 12.6064C5.47485 12.8171 5.42406 13.2095 5.63479 13.4829C6.63812 14.7846 8.21577 15.625 9.98944 15.625C12.8107 15.625 15.1363 13.5001 15.4469 10.7638H15.8307C16.0836 10.7638 16.3116 10.6115 16.4083 10.3778C16.5049 10.1442 16.4513 9.87529 16.2724 9.6966L15.2988 8.72438Z" fill="#344EFE"/>
</svg>
