<svg width="20" height="20" viewBox="0 0 20 20" fill="none" xmlns="http://www.w3.org/2000/svg">
<path fill-rule="evenodd" clip-rule="evenodd" d="M18.3307 15.1754C18.3307 14.8666 18.0704 14.6162 17.7493 14.6162H11.4351C11.2778 14.2424 10.9674 13.9439 10.5788 13.7926V11.4474H15.4238C16.7081 11.4474 17.7493 10.4459 17.7493 9.21053C17.7493 7.97515 16.7081 6.97368 15.4238 6.97368C16.7081 6.97368 17.7493 5.97222 17.7493 4.73684C17.7493 3.50147 16.7081 2.5 15.4238 2.5H4.57104C3.28666 2.5 2.24546 3.50147 2.24546 4.73684C2.24546 5.97222 3.28666 6.97368 4.57104 6.97368C3.28666 6.97368 2.24546 7.97515 2.24546 9.21053C2.24546 10.4459 3.28666 11.4474 4.57104 11.4474H9.416V13.7926C9.02736 13.9439 8.71702 14.2424 8.5597 14.6162H2.24546C1.92436 14.6162 1.66406 14.8666 1.66406 15.1754C1.66406 15.4843 1.92436 15.7346 2.24546 15.7346H8.5597C8.7897 16.2812 9.34674 16.6667 9.9974 16.6667C10.648 16.6667 11.2051 16.2812 11.4351 15.7346H17.7493C18.0704 15.7346 18.3307 15.4843 18.3307 15.1754ZM10.1912 4.73684C10.1912 4.428 10.4515 4.17763 10.7726 4.17763H15.4238C15.7448 4.17763 16.0051 4.428 16.0051 4.73684C16.0051 5.04569 15.7448 5.29605 15.4238 5.29605H10.7726C10.4515 5.29605 10.1912 5.04569 10.1912 4.73684ZM10.1912 9.21053C10.1912 8.90168 10.4515 8.65132 10.7726 8.65132H15.4238C15.7448 8.65132 16.0051 8.90168 16.0051 9.21053C16.0051 9.51937 15.7448 9.76974 15.4238 9.76974H10.7726C10.4515 9.76974 10.1912 9.51937 10.1912 9.21053ZM5.34623 5.48246C5.77436 5.48246 6.12143 5.14863 6.12143 4.73684C6.12143 4.32505 5.77436 3.99123 5.34623 3.99123C4.91811 3.99123 4.57104 4.32505 4.57104 4.73684C4.57104 5.14863 4.91811 5.48246 5.34623 5.48246ZM5.34623 9.95614C5.77436 9.95614 6.12143 9.62232 6.12143 9.21053C6.12143 8.79874 5.77436 8.46491 5.34623 8.46491C4.91811 8.46491 4.57104 8.79874 4.57104 9.21053C4.57104 9.62232 4.91811 9.95614 5.34623 9.95614Z" fill="#949494"/>
</svg>
