<svg width="51" height="51" viewBox="0 0 51 51" fill="none" xmlns="http://www.w3.org/2000/svg">
<path fill-rule="evenodd" clip-rule="evenodd" d="M0.0774027 16.0676C-0.363795 17.7068 1.04882 21.588 3.87405 29.3502L5.26539 33.1729C10.2469 46.8595 22.9546 49.7561 30.4374 50.2264C32.4672 50.354 33.4821 50.4178 35.9564 49.5173C38.4307 48.6167 39.1671 47.9155 40.64 46.513C46.0698 41.3428 53.9426 30.9556 48.9611 17.2689L47.5698 13.4463C44.7445 5.68402 43.3319 1.80289 41.9402 0.830744C40.5486 -0.141401 36.4446 -0.062332 28.2367 0.0958063L26.6729 0.125934C22.3943 0.208368 20.255 0.249585 18.2854 0.966489C16.3157 1.68339 14.6504 3.02693 11.3198 5.71401L10.1025 6.6961C3.71324 11.8509 0.518601 14.4283 0.0774027 16.0676ZM19.6619 19.6259C18.6922 19.1737 17.5394 19.5932 17.0872 20.563C16.6349 21.5328 17.0545 22.6856 18.0243 23.1378L24.5461 26.179L21.505 32.7007C21.0527 33.6705 21.4723 34.8233 22.4421 35.2755C23.4119 35.7277 24.5647 35.3082 25.0169 34.3384L28.058 27.8166L34.5797 30.8577C35.5495 31.31 36.7023 30.8904 37.1545 29.9206C37.6067 28.9508 37.1871 27.798 36.2173 27.3458L29.6957 24.3047L32.7368 17.783C33.189 16.8132 32.7695 15.6604 31.7997 15.2082C30.8299 14.756 29.6771 15.1755 29.2249 16.1453L26.1837 22.6671L19.6619 19.6259Z" fill="#CA242C"/>
</svg>
