<svg width="68" height="61" viewBox="0 0 68 61" fill="none" xmlns="http://www.w3.org/2000/svg">
<g filter="url(#filter0_d_6030_2985)">
<path fill-rule="evenodd" clip-rule="evenodd" d="M30.3333 8H37.5C44.2568 8 47.6352 8 49.7343 10.0991C51.8333 12.1981 51.8333 15.5765 51.8333 22.3333C51.8333 29.0901 51.8333 32.4685 49.7343 34.5676C47.6352 36.6667 44.2568 36.6667 37.5 36.6667H30.3333C23.5765 36.6667 20.1981 36.6667 18.0991 34.5676C16 32.4685 16 29.0901 16 22.3333C16 15.5765 16 12.1981 18.0991 10.0991C20.1981 8 23.5765 8 30.3333 8ZM36.1562 16.9583C36.1562 16.2162 36.7579 15.6146 37.5 15.6146H46.4583C47.2005 15.6146 47.8021 16.2162 47.8021 16.9583C47.8021 17.7005 47.2005 18.3021 46.4583 18.3021H37.5C36.7579 18.3021 36.1562 17.7005 36.1562 16.9583ZM37.9479 22.3333C37.9479 21.5912 38.5495 20.9896 39.2917 20.9896H46.4583C47.2005 20.9896 47.8021 21.5912 47.8021 22.3333C47.8021 23.0755 47.2005 23.6771 46.4583 23.6771H39.2917C38.5495 23.6771 37.9479 23.0755 37.9479 22.3333ZM39.7396 27.7083C39.7396 26.9662 40.3412 26.3646 41.0833 26.3646H46.4583C47.2005 26.3646 47.8021 26.9662 47.8021 27.7083C47.8021 28.4505 47.2005 29.0521 46.4583 29.0521H41.0833C40.3412 29.0521 39.7396 28.4505 39.7396 27.7083ZM32.125 16.9583C32.125 18.9374 30.5207 20.5417 28.5417 20.5417C26.5626 20.5417 24.9583 18.9374 24.9583 16.9583C24.9583 14.9793 26.5626 13.375 28.5417 13.375C30.5207 13.375 32.125 14.9793 32.125 16.9583ZM28.5417 31.2917C35.7083 31.2917 35.7083 29.6874 35.7083 27.7083C35.7083 25.7293 32.4997 24.125 28.5417 24.125C24.5836 24.125 21.375 25.7293 21.375 27.7083C21.375 29.6874 21.375 31.2917 28.5417 31.2917Z" fill="#F58220"/>
</g>
<defs>
<filter id="filter0_d_6030_2985" x="0" y="0" width="67.8359" height="60.6667" filterUnits="userSpaceOnUse" color-interpolation-filters="sRGB">
<feFlood flood-opacity="0" result="BackgroundImageFix"/>
<feColorMatrix in="SourceAlpha" type="matrix" values="0 0 0 0 0 0 0 0 0 0 0 0 0 0 0 0 0 0 127 0" result="hardAlpha"/>
<feOffset dy="8"/>
<feGaussianBlur stdDeviation="8"/>
<feComposite in2="hardAlpha" operator="out"/>
<feColorMatrix type="matrix" values="0 0 0 0 0.960784 0 0 0 0 0.509804 0 0 0 0 0.12549 0 0 0 0.2 0"/>
<feBlend mode="normal" in2="BackgroundImageFix" result="effect1_dropShadow_6030_2985"/>
<feBlend mode="normal" in="SourceGraphic" in2="effect1_dropShadow_6030_2985" result="shape"/>
</filter>
</defs>
</svg>
