<svg width="14" height="14" viewBox="0 0 14 14" fill="none" xmlns="http://www.w3.org/2000/svg">
<g clip-path="url(#clip0_3384_3111)">
<path d="M0.65625 5.25009H4.59375C4.85898 5.25009 5.09961 5.09149 5.20078 4.8454C5.30195 4.59931 5.24727 4.31766 5.05859 4.12899L3.78164 2.85204C5.84063 1.2497 8.82109 1.39462 10.7133 3.28681C12.7641 5.33759 12.7641 8.65985 10.7133 10.7106C8.6625 12.7614 5.34023 12.7614 3.28945 10.7106C3.01055 10.4317 2.76992 10.1282 2.56758 9.80829C2.30781 9.40087 1.76641 9.28055 1.35898 9.54032C0.951563 9.80009 0.83125 10.3415 1.09102 10.7489C1.35898 11.1755 1.67891 11.5802 2.05078 11.9493C4.78516 14.6837 9.21484 14.6837 11.9492 11.9493C14.6836 9.21493 14.6836 4.78524 11.9492 2.05087C9.37344 -0.527648 5.28555 -0.675305 2.53477 1.6079L1.12109 0.191492C0.932422 0.0055549 0.650781 -0.051867 0.404687 0.0493049C0.158594 0.150477 0 0.391102 0 0.656336V4.59384C0 4.95751 0.292578 5.25009 0.65625 5.25009Z" fill="#344EFE"/>
</g>
<defs>
<clipPath id="clip0_3384_3111">
<rect width="14" height="14" fill="white"/>
</clipPath>
</defs>
</svg>
