<svg width="20" height="20" viewBox="0 0 20 20" fill="none" xmlns="http://www.w3.org/2000/svg">
<path d="M15.6992 11.1469C16.637 11.1469 17.4829 11.5239 18.1084 12.1312L16.1377 4.31516C15.6992 2.95379 14.9137 2.5 13.9448 2.5H6.05003C5.08111 2.5 4.29564 2.95379 3.85704 4.31516L1.88636 12.1312C2.51184 11.5239 3.35779 11.1469 4.29564 11.1469H15.6992Z" fill="#949494"/>
<path fill-rule="evenodd" clip-rule="evenodd" d="M4.29564 12.0041C3.32323 12.0041 2.46202 12.557 2.00467 13.3991C1.78838 13.7973 1.66406 14.2585 1.66406 14.752C1.66406 16.2931 2.86554 17.5 4.29564 17.5H15.6992C17.1292 17.5 18.3307 16.2931 18.3307 14.752C18.3307 14.2585 18.2064 13.7973 17.9901 13.3991C17.5328 12.557 16.6716 12.0041 15.6992 12.0041H4.29564ZM9.3395 14.5002C9.3395 14.1452 9.04495 13.8574 8.68161 13.8574C8.31826 13.8574 8.02371 14.1452 8.02371 14.5002V15.3574C8.02371 15.7124 8.31826 16.0003 8.68161 16.0003C9.04495 16.0003 9.3395 15.7124 9.3395 15.3574V14.5002ZM10.8746 13.8574C11.2379 13.8574 11.5325 14.1452 11.5325 14.5002V15.3574C11.5325 15.7124 11.2379 16.0003 10.8746 16.0003C10.5112 16.0003 10.2167 15.7124 10.2167 15.3574V14.5002C10.2167 14.1452 10.5112 13.8574 10.8746 13.8574ZM13.7255 14.5002C13.7255 14.1452 13.4309 13.8574 13.0676 13.8574C12.7042 13.8574 12.4097 14.1452 12.4097 14.5002V15.3574C12.4097 15.7124 12.7042 16.0003 13.0676 16.0003C13.4309 16.0003 13.7255 15.7124 13.7255 15.3574V14.5002ZM15.9184 14.5002C15.9184 14.1452 15.6239 13.8574 15.2606 13.8574C14.8972 13.8574 14.6027 14.1452 14.6027 14.5002V15.3574C14.6027 15.7124 14.8972 16.0003 15.2606 16.0003C15.6239 16.0003 15.9184 15.7124 15.9184 15.3574V14.5002Z" fill="#949494"/>
</svg>
