<svg width="20" height="20" viewBox="0 0 20 20" fill="none" xmlns="http://www.w3.org/2000/svg">
<path fill-rule="evenodd" clip-rule="evenodd" d="M11.899 1.79362C11.5904 1.66675 11.1991 1.66675 10.4167 1.66675C9.63418 1.66675 9.24294 1.66675 8.93433 1.79362C8.52284 1.96277 8.19591 2.28723 8.02546 2.69561C7.94766 2.88203 7.91721 3.09883 7.90529 3.41507C7.88778 3.87982 7.64763 4.30999 7.2418 4.54252C6.83598 4.77505 6.34053 4.76636 5.92624 4.54905C5.64432 4.40116 5.43991 4.31893 5.23832 4.2926C4.79674 4.2349 4.35015 4.35366 3.9968 4.62275C3.73178 4.82456 3.53616 5.16083 3.14492 5.83336C2.75368 6.50589 2.55806 6.84215 2.51446 7.17084C2.45632 7.60908 2.57598 8.0523 2.84712 8.40298C2.97088 8.56305 3.14481 8.6976 3.41475 8.86594C3.8116 9.1134 4.06693 9.53496 4.06691 10.0001C4.06688 10.4652 3.81155 10.8867 3.41475 11.1341C3.14476 11.3025 2.97081 11.437 2.84704 11.5971C2.5759 11.9478 2.45624 12.391 2.51437 12.8293C2.55798 13.158 2.7536 13.4942 3.14484 14.1667C3.53608 14.8393 3.7317 15.1755 3.99671 15.3774C4.35007 15.6464 4.79666 15.7652 5.23824 15.7075C5.43981 15.6812 5.64421 15.599 5.92611 15.4511C6.34043 15.2338 6.83592 15.2251 7.24177 15.4576C7.64762 15.6902 7.88778 16.1204 7.90529 16.5851C7.91721 16.9014 7.94766 17.1181 8.02546 17.3046C8.19591 17.7129 8.52284 18.0374 8.93433 18.2065C9.24294 18.3334 9.63418 18.3334 10.4167 18.3334C11.1991 18.3334 11.5904 18.3334 11.899 18.2065C12.3105 18.0374 12.6374 17.7129 12.8079 17.3046C12.8857 17.1181 12.9161 16.9013 12.928 16.5851C12.9456 16.1203 13.1857 15.6902 13.5915 15.4576C13.9973 15.225 14.4928 15.2337 14.9072 15.451C15.1891 15.5989 15.3934 15.6811 15.595 15.7075C16.0366 15.7651 16.4832 15.6464 16.8365 15.3773C17.1016 15.1755 17.2972 14.8392 17.6884 14.1667C18.0797 13.4942 18.2753 13.1579 18.3189 12.8292C18.377 12.391 18.2573 11.9478 17.9862 11.5971C17.8624 11.437 17.6885 11.3024 17.4185 11.1341C17.0217 10.8866 16.7664 10.4651 16.7664 10C16.7664 9.53496 17.0218 9.11348 17.4185 8.86607C17.6885 8.6977 17.8625 8.56313 17.9863 8.40304C18.2574 8.05235 18.3771 7.60914 18.319 7.17089C18.2754 6.84221 18.0797 6.50594 17.6885 5.83342C17.2973 5.16089 17.1016 4.82462 16.8366 4.6228C16.4833 4.35372 16.0367 4.23496 15.5951 4.29265C15.3935 4.31899 15.1891 4.40121 14.9072 4.54908C14.4929 4.76641 13.9974 4.7751 13.5916 4.54255C13.1857 4.31 12.9456 3.8798 12.928 3.41503C12.9161 3.09881 12.8857 2.88202 12.8079 2.69561C12.6374 2.28723 12.3105 1.96277 11.899 1.79362ZM10.4167 12.5001C11.8079 12.5001 12.9357 11.3808 12.9357 10.0001C12.9357 8.61937 11.8079 7.50008 10.4167 7.50008C9.02544 7.50008 7.89763 8.61937 7.89763 10.0001C7.89763 11.3808 9.02544 12.5001 10.4167 12.5001Z" fill="#949494"/>
</svg>
