<svg width="51" height="51" viewBox="0 0 51 51" fill="none" xmlns="http://www.w3.org/2000/svg">
<path fill-rule="evenodd" clip-rule="evenodd" d="M0.0774029 16.0676C-0.363795 17.7068 1.04882 21.588 3.87405 29.3502L5.26539 33.1729C10.2469 46.8595 22.9546 49.7561 30.4374 50.2264C32.4672 50.354 33.4821 50.4178 35.9564 49.5173C38.4307 48.6167 39.1671 47.9155 40.64 46.513C46.0698 41.3428 53.9426 30.9556 48.9611 17.2689L47.5698 13.4463C44.7445 5.68402 43.3319 1.80289 41.9402 0.830744C40.5486 -0.141401 36.4446 -0.0623316 28.2367 0.0958065L26.6729 0.125934C22.3943 0.208368 20.255 0.249585 18.2854 0.966489C16.3157 1.68339 14.6504 3.02693 11.3198 5.71401L10.1025 6.6961C3.71324 11.8509 0.518601 14.4283 0.0774029 16.0676ZM33.2221 18.8962C33.6188 17.9024 33.1347 16.7752 32.1409 16.3785C31.1471 15.9818 30.0199 16.4658 29.6232 17.4596L25.2921 28.31L22.3222 26.7149C21.3795 26.2086 20.2049 26.5623 19.6986 27.505C19.1922 28.4477 19.546 29.6224 20.4887 30.1287L25.3703 32.7505C25.8565 33.0117 26.4311 33.053 26.9497 32.8643C27.4684 32.6755 27.8819 32.2745 28.0865 31.7619L33.2221 18.8962Z" fill="#109D35"/>
</svg>
