<svg width="20" height="20" viewBox="0 0 20 20" fill="none" xmlns="http://www.w3.org/2000/svg">
<path d="M13.3333 11.6667C14.4071 11.6668 15.4393 12.0814 16.2148 12.824C16.9903 13.5666 17.4492 14.5799 17.4958 15.6526L17.5 15.8334V16.6667C17.5001 17.0872 17.3413 17.4922 17.0554 17.8005C16.7695 18.1089 16.3776 18.2977 15.9583 18.3292L15.8333 18.3334H4.16667C3.74619 18.3335 3.34119 18.1747 3.03288 17.8888C2.72456 17.6029 2.5357 17.211 2.50417 16.7917L2.5 16.6667V15.8334C2.50006 14.7597 2.91462 13.7274 3.65722 12.9519C4.39982 12.1764 5.41313 11.7175 6.48583 11.6709L6.66667 11.6667H13.3333ZM10 1.66675C11.1051 1.66675 12.1649 2.10573 12.9463 2.88714C13.7277 3.66854 14.1667 4.72835 14.1667 5.83341C14.1667 6.93848 13.7277 7.99829 12.9463 8.77969C12.1649 9.56109 11.1051 10.0001 10 10.0001C8.89493 10.0001 7.83512 9.56109 7.05372 8.77969C6.27232 7.99829 5.83333 6.93848 5.83333 5.83341C5.83333 4.72835 6.27232 3.66854 7.05372 2.88714C7.83512 2.10573 8.89493 1.66675 10 1.66675Z" fill="#949494"/>
</svg>
