<svg width="20" height="20" viewBox="0 0 20 20" fill="none" xmlns="http://www.w3.org/2000/svg">
<circle cx="7.4974" cy="5.00008" r="3.33333" fill="#949494"/>
<ellipse cx="7.4974" cy="14.1676" rx="5.83333" ry="3.33333" fill="#949494"/>
<path d="M17.4977 14.1669C17.4977 15.5476 15.8014 16.6669 13.7303 16.6669C14.3405 16 14.76 15.1628 14.76 14.1681C14.76 13.1722 14.3395 12.3343 13.7282 11.667C15.7992 11.667 17.4977 12.7862 17.4977 14.1669Z" fill="#949494"/>
<path d="M14.9977 5.00049C14.9977 6.3812 13.8784 7.50049 12.4977 7.50049C12.1966 7.50049 11.9079 7.44727 11.6406 7.34972C12.0349 6.65631 12.26 5.85423 12.26 4.99956C12.26 4.14552 12.0352 3.34399 11.6415 2.65093C11.9086 2.55359 12.1969 2.50049 12.4977 2.50049C13.8784 2.50049 14.9977 3.61978 14.9977 5.00049Z" fill="#949494"/>
</svg>
