<svg width="19" height="19" viewBox="0 0 19 19" fill="none" xmlns="http://www.w3.org/2000/svg">
<path d="M7.72135 9.49996C7.72135 8.5162 8.51885 7.71871 9.5026 7.71871C10.4864 7.71871 11.2839 8.5162 11.2839 9.49996C11.2839 10.4837 10.4864 11.2812 9.5026 11.2812C8.51885 11.2812 7.72135 10.4837 7.72135 9.49996Z" fill="white"/>
<path fill-rule="evenodd" clip-rule="evenodd" d="M1.58594 9.49996C1.58594 10.7978 1.92237 11.2349 2.59523 12.109C3.93874 13.8545 6.19194 15.8333 9.5026 15.8333C12.8133 15.8333 15.0665 13.8545 16.41 12.109C17.0828 11.2349 17.4193 10.7978 17.4193 9.49996C17.4193 8.20212 17.0828 7.76504 16.41 6.89089C15.0665 5.14544 12.8133 3.16663 9.5026 3.16663C6.19194 3.16663 3.93874 5.14544 2.59523 6.89089C1.92237 7.76504 1.58594 8.20212 1.58594 9.49996ZM9.5026 6.53121C7.86301 6.53121 6.53385 7.86036 6.53385 9.49996C6.53385 11.1396 7.86301 12.4687 9.5026 12.4687C11.1422 12.4687 12.4714 11.1396 12.4714 9.49996C12.4714 7.86036 11.1422 6.53121 9.5026 6.53121Z" fill="white"/>
</svg>
