<svg width="20" height="20" viewBox="0 0 20 20" fill="none" xmlns="http://www.w3.org/2000/svg">
<path d="M14.6455 3.69289L12.9788 2.81827C11.5158 2.05051 10.7843 1.66663 9.9974 1.66663C9.2105 1.66663 8.47899 2.05051 7.01597 2.81826L5.34931 3.69289C3.87118 4.46858 3.00231 4.92454 2.46381 5.53439L9.9974 9.30119L17.531 5.53439C16.9925 4.92454 16.1236 4.46858 14.6455 3.69289Z" fill="#949494"/>
<path d="M18.121 6.63691L10.6224 10.3862V18.2533C11.2207 18.1043 11.9014 17.7471 12.9788 17.1817L14.6455 16.307C16.4385 15.3661 17.3351 14.8956 17.8329 14.0502C18.3307 13.2048 18.3307 12.1527 18.3307 10.0487V9.95122C18.3307 8.374 18.3307 7.38794 18.121 6.63691Z" fill="#949494"/>
<path d="M9.3724 18.2533V10.3862L1.87376 6.63691C1.66406 7.38794 1.66406 8.374 1.66406 9.95122V10.0487C1.66406 12.1527 1.66406 13.2048 2.16189 14.0502C2.65972 14.8956 3.55625 15.3661 5.34931 16.307L7.01597 17.1817C8.09343 17.7471 8.77413 18.1043 9.3724 18.2533Z" fill="#949494"/>
</svg>
