<svg width="20" height="20" viewBox="0 0 20 20" fill="none" xmlns="http://www.w3.org/2000/svg">
<path fill-rule="evenodd" clip-rule="evenodd" d="M14.9974 13.125C13.9619 13.125 13.1224 13.9645 13.1224 15C13.1224 16.0356 13.9619 16.875 14.9974 16.875C16.0329 16.875 16.8724 16.0356 16.8724 15C16.8724 13.9645 16.0329 13.125 14.9974 13.125ZM11.8724 15C11.8724 13.2742 13.2715 11.875 14.9974 11.875C16.7233 11.875 18.1224 13.2742 18.1224 15C18.1224 15.637 17.9318 16.2294 17.6046 16.7234L18.7727 17.8914C19.0167 18.1355 19.0167 18.5312 18.7727 18.7753C18.5286 19.0194 18.1329 19.0194 17.8888 18.7753L16.7208 17.6073C16.2267 17.9345 15.6343 18.125 14.9974 18.125C13.2715 18.125 11.8724 16.7259 11.8724 15Z" fill="cureentColor"/>
<path d="M6.45573 2.08337C6.45573 1.7382 6.17591 1.45837 5.83073 1.45837C5.48555 1.45837 5.20573 1.7382 5.20573 2.08337V3.39942C4.00629 3.49547 3.21887 3.73119 2.64037 4.30968C2.06187 4.88818 1.82616 5.6756 1.73011 6.87504H18.2647C18.1686 5.6756 17.9329 4.88818 17.3544 4.30968C16.7759 3.73119 15.9885 3.49547 14.7891 3.39942V2.08337C14.7891 1.7382 14.5092 1.45837 14.1641 1.45837C13.8189 1.45837 13.5391 1.7382 13.5391 2.08337V3.34413C12.9847 3.33337 12.3633 3.33337 11.6641 3.33337H8.33073C7.63153 3.33337 7.01012 3.33337 6.45573 3.34413V2.08337Z" fill="cureentColor"/>
<path d="M18.3307 10V11.6667C18.3307 11.8378 18.3307 12.0042 18.3306 12.1661C17.5281 11.2232 16.3326 10.625 14.9974 10.625C12.5812 10.625 10.6224 12.5838 10.6224 15C10.6224 16.3352 11.2205 17.5307 12.1634 18.3332C12.0015 18.3334 11.8351 18.3334 11.6641 18.3334H8.33073C5.18803 18.3334 3.61668 18.3334 2.64037 17.3571C1.66406 16.3808 1.66406 14.8094 1.66406 11.6667V10C1.66406 9.30085 1.66406 8.67943 1.67481 8.12504H18.32C18.3307 8.67943 18.3307 9.30085 18.3307 10Z" fill="cureentColor"/>
</svg>
