<svg width="20" height="20" viewBox="0 0 20 20" fill="none" xmlns="http://www.w3.org/2000/svg">
<path d="M2.5 5.3216C2.5 4.91789 2.78782 4.59062 3.14286 4.59062L5.36306 4.59022C5.80419 4.57751 6.19335 4.25857 6.34345 3.78672C6.3474 3.77432 6.35193 3.75902 6.36821 3.70349L6.46388 3.37709C6.52242 3.17696 6.57342 3.00261 6.64479 2.84677C6.92674 2.23109 7.4484 1.80356 8.05122 1.6941C8.20381 1.66639 8.3654 1.66651 8.55088 1.66664H11.4493C11.6347 1.66651 11.7963 1.66639 11.9489 1.6941C12.5517 1.80356 13.0734 2.23109 13.3554 2.84677C13.4267 3.00261 13.4777 3.17696 13.5363 3.37709L13.6319 3.70349C13.6482 3.75902 13.6527 3.77432 13.6567 3.78672C13.8068 4.25857 14.2732 4.5779 14.7143 4.59062H16.8571C17.2122 4.59062 17.5 4.91789 17.5 5.3216C17.5 5.72532 17.2122 6.05259 16.8571 6.05259H3.14286C2.78782 6.05259 2.5 5.72532 2.5 5.3216Z" fill="#CA242C"/>
<path fill-rule="evenodd" clip-rule="evenodd" d="M9.663 18.3333H10.337C12.6559 18.3333 13.8154 18.3333 14.5693 17.595C15.3231 16.8567 15.4003 15.6457 15.5545 13.2237L15.7768 9.7338C15.8605 8.41963 15.9023 7.76255 15.5241 7.34617C15.1459 6.92978 14.5073 6.92978 13.23 6.92978H6.77004C5.49272 6.92978 4.85407 6.92978 4.47588 7.34617C4.09769 7.76255 4.13953 8.41963 4.22323 9.7338L4.44549 13.2237C4.59975 15.6457 4.67687 16.8567 5.43074 17.595C6.18461 18.3333 7.34407 18.3333 9.663 18.3333ZM12.7052 10.288C12.7396 9.92641 12.489 9.60401 12.1455 9.56786C11.8021 9.5317 11.4958 9.79548 11.4614 10.157L11.0448 14.543C11.0104 14.9045 11.261 15.2269 11.6045 15.2631C11.9479 15.2992 12.2542 15.0355 12.2886 14.6739L12.7052 10.288ZM7.85448 9.56786C8.19794 9.5317 8.50422 9.79548 8.53856 10.157L8.95523 14.543C8.98958 14.9045 8.73899 15.2269 8.39552 15.2631C8.05206 15.2992 7.74578 15.0355 7.71143 14.6739L7.29477 10.288C7.26042 9.92641 7.51101 9.60401 7.85448 9.56786Z" fill="#CA242C"/>
</svg>
