<svg width="20" height="20" viewBox="0 0 20 20" fill="none" xmlns="http://www.w3.org/2000/svg">
<path d="M15.1689 8.07776L10.9609 12.2887C10.762 12.4879 10.5257 12.6467 10.2656 12.7545C10.0057 12.8623 9.72673 12.9176 9.44531 12.9176H7.29688C7.13111 12.9176 6.9717 12.8512 6.85449 12.734C6.73748 12.6169 6.67191 12.4582 6.67188 12.2926V10.1578C6.67188 9.58953 6.89622 9.04387 7.29785 8.64221L11.7051 4.22815L15.1689 8.07776ZM15.1523 1.66663C15.4341 1.66657 15.7134 1.72177 15.9736 1.82971C16.2338 1.93764 16.47 2.09616 16.6689 2.29553L17.2939 2.92151C17.4931 3.1204 17.651 3.35683 17.7588 3.61682C17.8666 3.87685 17.9219 4.15564 17.9219 4.43713C17.9219 4.7186 17.8666 4.99744 17.7588 5.25745C17.651 5.51739 17.4931 5.7539 17.2939 5.95276L16.4189 6.82678L12.9541 2.97815L13.6357 2.29651C13.8346 2.09698 14.0709 1.93878 14.3311 1.83069C14.5913 1.72258 14.8706 1.6667 15.1523 1.66663Z" fill="#344EFE"/>
<path d="M9.74156 1.66748H9.78906C9.95482 1.66748 10.1138 1.73333 10.231 1.85054C10.3482 1.96775 10.4141 2.12672 10.4141 2.29248C10.4141 2.45824 10.3482 2.61721 10.231 2.73442C10.1138 2.85163 9.95482 2.91748 9.78906 2.91748C8.00323 2.91748 6.7274 2.91915 5.7574 3.04915C4.80573 3.17748 4.24323 3.41915 3.82906 3.83248C3.41573 4.24665 3.17406 4.80915 3.04573 5.76081C2.91573 6.73081 2.91406 8.00665 2.91406 9.79248C2.91406 11.5783 2.91573 12.8541 3.04573 13.8241C3.17406 14.7758 3.41573 15.3383 3.82906 15.7525C4.24323 16.1658 4.80573 16.4075 5.7574 16.5358C6.7274 16.6658 8.00323 16.6675 9.78906 16.6675C11.5749 16.6675 12.8507 16.6658 13.8207 16.5358C14.7724 16.4075 15.3349 16.1658 15.7491 15.7525C16.1624 15.3383 16.4041 14.7758 16.5324 13.8241C16.6624 12.8541 16.6641 11.5775 16.6641 9.79248C16.6641 9.62672 16.7299 9.46775 16.8471 9.35054C16.9643 9.23333 17.1233 9.16748 17.2891 9.16748C17.4548 9.16748 17.6138 9.23333 17.731 9.35054C17.8482 9.46775 17.9141 9.62672 17.9141 9.79248V9.83998C17.9141 11.5675 17.9141 12.9275 17.7716 13.99C17.6249 15.0816 17.3174 15.9516 16.6324 16.6358C15.9482 17.3208 15.0774 17.6275 13.9874 17.775C12.9241 17.9175 11.5641 17.9175 9.83656 17.9175H9.74156C8.01406 17.9175 6.65406 17.9175 5.59156 17.775C4.4999 17.6283 3.6299 17.3208 2.94573 16.6358C2.26073 15.9516 1.95406 15.0808 1.80656 13.9908C1.66406 12.9275 1.66406 11.5675 1.66406 9.83998V9.74498C1.66406 8.01748 1.66406 6.65748 1.80656 5.59498C1.95323 4.50331 2.26073 3.63331 2.94573 2.94915C3.6299 2.26415 4.50073 1.95748 5.59073 1.80998C6.65406 1.66748 8.01406 1.66748 9.74156 1.66748Z" fill="#344EFE"/>
</svg>
