<svg width="20" height="20" viewBox="0 0 20 20" fill="none" xmlns="http://www.w3.org/2000/svg">
<path d="M12.3307 3.84405L17.9149 13.1449C18.7174 14.4807 18.3232 16.2382 17.0341 17.0699C16.6016 17.3506 16.0971 17.5 15.5816 17.4999H4.4124C2.8949 17.4999 1.66406 16.2249 1.66406 14.6507C1.66406 14.1182 1.80823 13.5974 2.07906 13.1449L7.66406 3.84405C8.46573 2.50822 10.1607 2.09905 11.4499 2.93072C11.8066 3.16072 12.1082 3.47322 12.3307 3.84405ZM9.9974 14.1665C10.2184 14.1665 10.4304 14.0788 10.5867 13.9225C10.7429 13.7662 10.8307 13.5542 10.8307 13.3332C10.8307 13.1122 10.7429 12.9002 10.5867 12.744C10.4304 12.5877 10.2184 12.4999 9.9974 12.4999C9.77638 12.4999 9.56442 12.5877 9.40814 12.744C9.25186 12.9002 9.16406 13.1122 9.16406 13.3332C9.16406 13.5542 9.25186 13.7662 9.40814 13.9225C9.56442 14.0788 9.77638 14.1665 9.9974 14.1665ZM9.9974 6.66655C9.77638 6.66655 9.56442 6.75435 9.40814 6.91063C9.25186 7.06691 9.16406 7.27887 9.16406 7.49988V10.8332C9.16406 11.0542 9.25186 11.2662 9.40814 11.4225C9.56442 11.5788 9.77638 11.6665 9.9974 11.6665C10.2184 11.6665 10.4304 11.5788 10.5867 11.4225C10.7429 11.2662 10.8307 11.0542 10.8307 10.8332V7.49988C10.8307 7.27887 10.7429 7.06691 10.5867 6.91063C10.4304 6.75435 10.2184 6.66655 9.9974 6.66655Z" fill="currentColor" />
</svg>
