<svg width="20" height="20" viewBox="0 0 20 20" fill="none" xmlns="http://www.w3.org/2000/svg">
<path fill-rule="evenodd" clip-rule="evenodd" d="M2.88445 2.88714C1.66406 4.10752 1.66406 6.07171 1.66406 10.0001C1.66406 13.9285 1.66406 15.8926 2.88445 17.113C4.10484 18.3334 6.06903 18.3334 9.9974 18.3334C13.9258 18.3334 15.89 18.3334 17.1103 17.113C18.3307 15.8926 18.3307 13.9285 18.3307 10.0001C18.3307 6.07171 18.3307 4.10752 17.1103 2.88714C15.89 1.66675 13.9258 1.66675 9.9974 1.66675C6.06903 1.66675 4.10484 1.66675 2.88445 2.88714ZM14.1641 10.5556C14.1641 14.1112 11.2011 15.0001 9.71962 15.0001C8.42332 15.0001 5.83073 14.1112 5.83073 10.5556C5.83073 9.00917 6.7165 8.02737 7.46067 7.5332C7.8009 7.30727 8.22407 7.45168 8.24607 7.8595C8.2942 8.75182 8.98191 9.46859 9.51449 8.751C10.0019 8.09423 10.2425 7.20235 10.2425 6.66675C10.2425 5.87776 11.0412 5.3764 11.6647 5.85979C12.8801 6.80199 14.1641 8.37995 14.1641 10.5556Z" fill="#949494"/>
</svg>
