<svg width="20" height="20" viewBox="0 0 20 20" fill="none" xmlns="http://www.w3.org/2000/svg">
<g clip-path="url(#clip0_3603_4655)">
<path d="M5 8.33116C5.01206 6.90902 5.09101 6.12503 5.60802 5.60802C6.12503 5.09101 6.90902 5.01206 8.33116 5" stroke="currentColor" stroke-width="1.5" stroke-linecap="round"/>
<path d="M5 11.6669C5.01206 13.089 5.09101 13.873 5.60802 14.39C6.12503 14.907 6.90902 14.986 8.33116 14.998" stroke="currentColor" stroke-width="1.5" stroke-linecap="round"/>
<path d="M15 8.33116C14.9879 6.90902 14.909 6.12503 14.392 5.60802C13.875 5.09101 13.091 5.01206 11.6688 5" stroke="currentColor" stroke-width="1.5" stroke-linecap="round"/>
<path d="M15 11.6669C14.9879 13.089 14.909 13.873 14.392 14.39C13.875 14.907 13.091 14.986 11.6688 14.998" stroke="currentColor" stroke-width="1.5" stroke-linecap="round"/>
<path d="M1.66406 9.99984C1.66406 6.07147 1.66406 4.10728 2.88445 2.88689C4.10484 1.6665 6.06902 1.6665 9.9974 1.6665C13.9258 1.6665 15.89 1.6665 17.1103 2.88689C18.3307 4.10728 18.3307 6.07147 18.3307 9.99984C18.3307 13.9282 18.3307 15.8924 17.1103 17.1128C15.89 18.3332 13.9258 18.3332 9.9974 18.3332C6.06902 18.3332 4.10484 18.3332 2.88445 17.1128C1.66406 15.8924 1.66406 13.9282 1.66406 9.99984Z" stroke="currentColor" stroke-width="1.5"/>
</g>
<defs>
<clipPath id="clip0_3603_4655">
<rect width="20" height="20" fill="white"/>
</clipPath>
</defs>
</svg>
