<svg width="20" height="20" viewBox="0 0 20 20" fill="none" xmlns="http://www.w3.org/2000/svg">
<path fill-rule="evenodd" clip-rule="evenodd" d="M17.5 5.83341C17.5 4.72835 17.061 3.66854 16.2796 2.88714C15.4982 2.10573 14.4384 1.66675 13.3333 1.66675H9.16667C8.94565 1.66675 8.73369 1.75455 8.57741 1.91083C8.42113 2.06711 8.33333 2.27907 8.33333 2.50008C8.33333 2.7211 8.42113 2.93306 8.57741 3.08934C8.73369 3.24562 8.94565 3.33341 9.16667 3.33341H13.3333C13.9964 3.33341 14.6323 3.59681 15.1011 4.06565C15.5699 4.53449 15.8333 5.17037 15.8333 5.83341V14.1667C15.8333 14.8298 15.5699 15.4657 15.1011 15.9345C14.6323 16.4034 13.9964 16.6667 13.3333 16.6667H9.16667C8.94565 16.6667 8.73369 16.7545 8.57741 16.9108C8.42113 17.0671 8.33333 17.2791 8.33333 17.5001C8.33333 17.7211 8.42113 17.9331 8.57741 18.0893C8.73369 18.2456 8.94565 18.3334 9.16667 18.3334H13.3333C14.4384 18.3334 15.4982 17.8944 16.2796 17.113C17.061 16.3316 17.5 15.2718 17.5 14.1667V5.83341Z" fill="#344EFE"/>
<path fill-rule="evenodd" clip-rule="evenodd" d="M8.6645 6.23019C8.60036 6.16044 8.52335 6.10425 8.43787 6.06482C8.35239 6.02539 8.26012 6.00349 8.16632 6.00038C8.07253 5.99728 7.97906 6.01302 7.89124 6.04671C7.80343 6.0804 7.72299 6.13138 7.65454 6.19674L4.2261 9.46919C4.15474 9.53722 4.09785 9.61943 4.05896 9.71074C4.02007 9.80206 4 9.90053 4 10.0001C4 10.0996 4.02007 10.1981 4.05896 10.2894C4.09785 10.3807 4.15474 10.4629 4.2261 10.5309L7.65454 13.8034C7.72301 13.8687 7.80345 13.9196 7.89126 13.9533C7.97907 13.987 8.07254 14.0027 8.16632 13.9996C8.26011 13.9965 8.35237 13.9746 8.43785 13.9352C8.52332 13.8958 8.60034 13.8396 8.6645 13.7699C8.72865 13.7002 8.7787 13.6183 8.81177 13.5289C8.84484 13.4395 8.86029 13.3443 8.85724 13.2489C8.85419 13.1534 8.83269 13.0594 8.79399 12.9724C8.75528 12.8854 8.70011 12.807 8.63164 12.7416L6.52101 10.7273H13.2857C13.4752 10.7273 13.6568 10.6507 13.7908 10.5143C13.9247 10.3779 14 10.1929 14 10.0001C14 9.80719 13.9247 9.62222 13.7908 9.48584C13.6568 9.34946 13.4752 9.27284 13.2857 9.27284H6.52101L8.63164 7.25847C8.70014 7.19316 8.75534 7.11476 8.79407 7.02773C8.83279 6.9407 8.8543 6.84675 8.85735 6.75126C8.8604 6.65576 8.84494 6.56059 8.81185 6.47119C8.77876 6.38178 8.72869 6.29988 8.6645 6.23019Z" fill="#344EFE"/>
</svg>
