<svg width="60" height="44" viewBox="0 0 60 44" fill="none" xmlns="http://www.w3.org/2000/svg">
<path d="M58.872 16.4658L32.7614 42.8503C31.2434 44.3832 28.7589 44.3832 27.2409 42.8503L1.12585 16.4658C-1.29238 14.0211 0.441861 9.87183 3.88828 9.87183H17.1709C17.1709 11.9553 17.6651 13.9198 18.5477 15.6597L17.5107 16.3953C16.8531 16.8622 16.0324 16.9547 15.2425 16.7873C14.2893 16.5891 13.2435 16.8622 12.48 17.6771C11.7254 18.4876 11.5004 19.7077 11.924 20.7296C12.6742 22.5443 14.8409 23.0949 16.3413 22.029C17.065 21.518 17.4842 20.7384 17.5592 19.9235C17.6254 19.2276 18.2211 18.3378 18.7904 17.9326L19.5847 17.3687C21.6367 20.2142 24.8315 22.1787 28.4986 22.606V23.4826C28.4986 24.7203 28.0352 25.9492 27.0997 26.7685C25.9789 27.7508 25.3655 29.2924 25.7009 30.9619C26.0362 32.6313 27.3777 33.9879 29.0502 34.3359C31.8876 34.9305 34.3897 32.781 34.3897 30.0545C34.3897 28.7903 33.8513 27.6495 32.9908 26.8522C32.0818 26.0109 31.4949 24.8789 31.4949 23.6411V22.606C35.1443 22.1832 38.3215 20.2318 40.3735 17.4128L41.362 18.1131C41.8739 18.4787 42.2754 19.2936 42.3328 19.9235C42.4122 20.7384 42.827 21.518 43.5507 22.029C45.0555 23.0949 47.2178 22.5443 47.968 20.7296C48.3916 19.7077 48.1665 18.4876 47.4119 17.6771C46.6309 16.8402 45.5497 16.5759 44.5789 16.8049C43.8376 16.9811 43.0609 16.8754 42.4431 16.4349L41.4193 15.7125C42.3195 13.9683 42.8226 11.9861 42.8226 9.88945V9.87183H56.114C59.556 9.87183 61.2947 14.0211 58.872 16.4658Z" fill="url(#paint0_linear_3016_2458)"/>
<path d="M29.9881 16.0688C33.4074 16.0688 36.1793 13.3019 36.1793 9.88888C36.1793 6.47582 33.4074 3.70898 29.9881 3.70898C26.5688 3.70898 23.7969 6.47582 23.7969 9.88888C23.7969 13.3019 26.5688 16.0688 29.9881 16.0688Z" fill="#F78320"/>
<path d="M30.0467 19.9051C24.5483 19.9051 20.0781 15.4387 20.0781 9.95478C20.0781 4.47084 24.5483 0 30.0467 0C35.5451 0 40.0153 4.46644 40.0153 9.95037C40.0153 15.4343 35.5407 19.9007 30.0467 19.9007V19.9051ZM30.0467 1.4756C25.3647 1.4756 21.5564 5.27691 21.5564 9.95037C21.5564 14.6238 25.3647 18.4251 30.0467 18.4251C34.7287 18.4251 38.537 14.6238 38.537 9.95037C38.537 5.27691 34.7287 1.4756 30.0467 1.4756Z" fill="#344EFE"/>
<defs>
<linearGradient id="paint0_linear_3016_2458" x1="30" y1="9.87183" x2="30" y2="44" gradientUnits="userSpaceOnUse">
<stop stop-color="#334EFF"/>
<stop offset="1" stop-color="#17299C"/>
</linearGradient>
</defs>
</svg>
