<svg width="20" height="20" viewBox="0 0 20 20" fill="none" xmlns="http://www.w3.org/2000/svg">
<path fill-rule="evenodd" clip-rule="evenodd" d="M2.88445 2.88714C1.66406 4.10752 1.66406 6.07171 1.66406 10.0001C1.66406 13.9285 1.66406 15.8926 2.88445 17.113C4.10484 18.3334 6.06903 18.3334 9.9974 18.3334C13.9258 18.3334 15.89 18.3334 17.1103 17.113C18.3307 15.8926 18.3307 13.9285 18.3307 10.0001C18.3307 6.07171 18.3307 4.10752 17.1103 2.88714C15.89 1.66675 13.9258 1.66675 9.9974 1.66675C6.06903 1.66675 4.10484 1.66675 2.88445 2.88714ZM5.35061 7.93332C5.57158 7.66814 5.96569 7.63232 6.23086 7.85329L6.46121 8.04525C6.96533 8.46531 7.39451 8.82292 7.69152 9.15184C8.00699 9.50119 8.25318 9.90295 8.25318 10.4168C8.25318 10.9306 8.00699 11.3323 7.69152 11.6817C7.39451 12.0106 6.96534 12.3682 6.46121 12.7883L6.23086 12.9802C5.96569 13.2012 5.57158 13.1654 5.35061 12.9002C5.12963 12.635 5.16546 12.2409 5.43063 12.02L5.62597 11.8572C6.17477 11.3998 6.53363 11.0988 6.76379 10.8439C6.98236 10.6019 7.00318 10.4884 7.00318 10.4168C7.00318 10.3451 6.98236 10.2316 6.76379 9.98958C6.53363 9.73469 6.17477 9.43369 5.62597 8.97635L5.43063 8.81357C5.16546 8.59259 5.12963 8.19849 5.35061 7.93332ZM14.7891 12.5001C14.7891 12.8453 14.5093 13.1251 14.1641 13.1251H9.99741C9.65223 13.1251 9.37241 12.8453 9.37241 12.5001C9.37241 12.1549 9.65223 11.8751 9.99741 11.8751H14.1641C14.5093 11.8751 14.7891 12.1549 14.7891 12.5001Z" fill="currentColor"/>
</svg>
