<svg width="20" height="20" viewBox="0 0 20 20" fill="none" xmlns="http://www.w3.org/2000/svg">
<path fill-rule="evenodd" clip-rule="evenodd" d="M9.9974 18.3333C14.5998 18.3333 18.3307 14.6023 18.3307 9.99996C18.3307 5.39759 14.5998 1.66663 9.9974 1.66663C5.39502 1.66663 1.66406 5.39759 1.66406 9.99996C1.66406 14.6023 5.39502 18.3333 9.9974 18.3333ZM10.6224 7.49996C10.6224 7.15478 10.3426 6.87496 9.9974 6.87496C9.65222 6.87496 9.3724 7.15478 9.3724 7.49996L9.3724 9.37498H7.4974C7.15222 9.37498 6.8724 9.6548 6.8724 9.99998C6.8724 10.3452 7.15222 10.625 7.4974 10.625H9.3724V12.5C9.3724 12.8451 9.65222 13.125 9.99739 13.125C10.3426 13.125 10.6224 12.8451 10.6224 12.5L10.6224 10.625H12.4974C12.8426 10.625 13.1224 10.3452 13.1224 9.99998C13.1224 9.6548 12.8426 9.37498 12.4974 9.37498H10.6224V7.49996Z" fill="currentColor"/>
</svg>
