<svg width="20" height="20" viewBox="0 0 20 20" fill="none" xmlns="http://www.w3.org/2000/svg">
<path fill-rule="evenodd" clip-rule="evenodd" d="M8.33073 3.33325H11.6641C14.8068 3.33325 16.3781 3.33325 17.3544 4.30956C18.3307 5.28587 18.3307 6.85722 18.3307 9.99992C18.3307 13.1426 18.3307 14.714 17.3544 15.6903C16.3781 16.6666 14.8068 16.6666 11.6641 16.6666H8.33073C5.18803 16.6666 3.61668 16.6666 2.64037 15.6903C1.66406 14.714 1.66406 13.1426 1.66406 9.99992C1.66406 6.85722 1.66406 5.28587 2.64037 4.30956C3.61668 3.33325 5.18803 3.33325 8.33073 3.33325ZM11.0391 7.49992C11.0391 7.15474 11.3189 6.87492 11.6641 6.87492H15.8307C16.1759 6.87492 16.4557 7.15474 16.4557 7.49992C16.4557 7.8451 16.1759 8.12492 15.8307 8.12492H11.6641C11.3189 8.12492 11.0391 7.8451 11.0391 7.49992ZM11.8724 9.99992C11.8724 9.65474 12.1522 9.37492 12.4974 9.37492H15.8307C16.1759 9.37492 16.4557 9.65474 16.4557 9.99992C16.4557 10.3451 16.1759 10.6249 15.8307 10.6249H12.4974C12.1522 10.6249 11.8724 10.3451 11.8724 9.99992ZM12.7057 12.4999C12.7057 12.1547 12.9856 11.8749 13.3307 11.8749H15.8307C16.1759 11.8749 16.4557 12.1547 16.4557 12.4999C16.4557 12.8451 16.1759 13.1249 15.8307 13.1249H13.3307C12.9856 13.1249 12.7057 12.8451 12.7057 12.4999ZM9.16406 7.49992C9.16406 8.42039 8.41787 9.16658 7.4974 9.16658C6.57692 9.16658 5.83073 8.42039 5.83073 7.49992C5.83073 6.57944 6.57692 5.83325 7.4974 5.83325C8.41787 5.83325 9.16406 6.57944 9.16406 7.49992ZM7.4974 14.1666C10.8307 14.1666 10.8307 13.4204 10.8307 12.4999C10.8307 11.5794 9.33835 10.8333 7.4974 10.8333C5.65645 10.8333 4.16406 11.5794 4.16406 12.4999C4.16406 13.4204 4.16406 14.1666 7.4974 14.1666Z" fill="#949494"/>
</svg>
