<svg width="68" height="63" viewBox="0 0 68 63" fill="none" xmlns="http://www.w3.org/2000/svg">
<g filter="url(#filter0_d_3016_2218)">
<path fill-rule="evenodd" clip-rule="evenodd" d="M51.8333 35.2522C51.8333 34.5882 51.2737 34.0499 50.5833 34.0499H37.0077C36.6695 33.2462 36.0022 32.6044 35.1667 32.2791V27.2368H45.5833C48.3448 27.2368 50.5833 25.0837 50.5833 22.4276C50.5833 19.7716 48.3448 17.6184 45.5833 17.6184C48.3448 17.6184 50.5833 15.4653 50.5833 12.8092C50.5833 10.1532 48.3448 8 45.5833 8H22.25C19.4886 8 17.25 10.1532 17.25 12.8092C17.25 15.4653 19.4886 17.6184 22.25 17.6184C19.4886 17.6184 17.25 19.7716 17.25 22.4276C17.25 25.0837 19.4886 27.2368 22.25 27.2368H32.6667V32.2791C31.8311 32.6044 31.1639 33.2462 30.8256 34.0499H17.25C16.5596 34.0499 16 34.5882 16 35.2522C16 35.9162 16.5596 36.4545 17.25 36.4545H30.8256C31.3201 37.6295 32.5178 38.4583 33.9167 38.4583C35.3156 38.4583 36.5132 37.6295 37.0077 36.4545H50.5833C51.2737 36.4545 51.8333 35.9162 51.8333 35.2522ZM34.3333 12.8092C34.3333 12.1452 34.893 11.6069 35.5833 11.6069H45.5833C46.2737 11.6069 46.8333 12.1452 46.8333 12.8092C46.8333 13.4732 46.2737 14.0115 45.5833 14.0115H35.5833C34.893 14.0115 34.3333 13.4732 34.3333 12.8092ZM34.3333 22.4276C34.3333 21.7636 34.893 21.2253 35.5833 21.2253H45.5833C46.2737 21.2253 46.8333 21.7636 46.8333 22.4276C46.8333 23.0916 46.2737 23.6299 45.5833 23.6299H35.5833C34.893 23.6299 34.3333 23.0916 34.3333 22.4276ZM23.9167 14.4123C24.8371 14.4123 25.5833 13.6946 25.5833 12.8092C25.5833 11.9239 24.8371 11.2061 23.9167 11.2061C22.9962 11.2061 22.25 11.9239 22.25 12.8092C22.25 13.6946 22.9962 14.4123 23.9167 14.4123ZM23.9167 24.0307C24.8371 24.0307 25.5833 23.313 25.5833 22.4276C25.5833 21.5423 24.8371 20.8246 23.9167 20.8246C22.9962 20.8246 22.25 21.5423 22.25 22.4276C22.25 23.313 22.9962 24.0307 23.9167 24.0307Z" fill="#344EFE"/>
</g>
<defs>
<filter id="filter0_d_3016_2218" x="0" y="0" width="67.8359" height="62.4583" filterUnits="userSpaceOnUse" color-interpolation-filters="sRGB">
<feFlood flood-opacity="0" result="BackgroundImageFix"/>
<feColorMatrix in="SourceAlpha" type="matrix" values="0 0 0 0 0 0 0 0 0 0 0 0 0 0 0 0 0 0 127 0" result="hardAlpha"/>
<feOffset dy="8"/>
<feGaussianBlur stdDeviation="8"/>
<feComposite in2="hardAlpha" operator="out"/>
<feColorMatrix type="matrix" values="0 0 0 0 0.203922 0 0 0 0 0.305882 0 0 0 0 0.996078 0 0 0 0.2 0"/>
<feBlend mode="normal" in2="BackgroundImageFix" result="effect1_dropShadow_3016_2218"/>
<feBlend mode="normal" in="SourceGraphic" in2="effect1_dropShadow_3016_2218" result="shape"/>
</filter>
</defs>
</svg>
